<?xml version="1.0" encoding="UTF-8"?>
<svg width="1024px" height="1024px" viewBox="0 0 1024 1024" version="1.1" xmlns="http://www.w3.org/2000/svg" xmlns:xlink="http://www.w3.org/1999/xlink">
    <title>stars@1x</title>
    <g id="stars" stroke="none" stroke-width="1" fill="none" fill-rule="evenodd">
        <circle id="Oval" fill="#FFFFFF" transform="translate(860.631247, 641.716038) rotate(-345.000000) translate(-860.631247, -641.716038) " cx="860.631247" cy="641.716038" r="1"></circle>
        <circle id="Oval" fill="#FFFFFF" transform="translate(905.372088, 880.429794) rotate(-345.000000) translate(-905.372088, -880.429794) " cx="905.372088" cy="880.429794" r="1"></circle>
        <circle id="Oval" fill="#FFFFFF" transform="translate(988.453001, 570.367604) rotate(-345.000000) translate(-988.453001, -570.367604) " cx="988.453001" cy="570.367604" r="1"></circle>
        <circle id="Oval" fill="#FFFFFF" transform="translate(618.769519, 787.070448) rotate(-345.000000) translate(-618.769519, -787.070448) " cx="618.769519" cy="787.070448" r="1"></circle>
        <circle id="Oval" fill="#FFFFFF" transform="translate(701.850432, 477.008258) rotate(-345.000000) translate(-701.850432, -477.008258) " cx="701.850432" cy="477.008258" r="1"></circle>
        <circle id="Oval" fill="#FFFFFF" transform="translate(745.785299, 258.949258) rotate(-345.000000) translate(-745.785299, -258.949258) " cx="745.785299" cy="258.949258" r="1"></circle>
        <circle id="Oval" fill="#FFFFFF" transform="translate(351.572065, 895.613162) rotate(-345.000000) translate(-351.572065, -895.613162) " cx="351.572065" cy="895.613162" r="1"></circle>
        <circle id="Oval" fill="#FFFFFF" transform="translate(806.717577, 962.699397) rotate(-345.000000) translate(-806.717577, -962.699397) " cx="806.717577" cy="962.699397" r="1"></circle>
        <circle id="Oval" fill="#FFFFFF" transform="translate(827.623862, 556.261299) rotate(-345.000000) translate(-827.623862, -556.261299) " cx="827.623862" cy="556.261299" r="1"></circle>
        <circle id="Oval" fill="#FFFFFF" transform="translate(872.364703, 794.975055) rotate(-345.000000) translate(-872.364703, -794.975055) " cx="872.364703" cy="794.975055" r="1"></circle>
        <circle id="Oval" fill="#FFFFFF" transform="translate(955.445616, 484.912864) rotate(-345.000000) translate(-955.445616, -484.912864) " cx="955.445616" cy="484.912864" r="1"></circle>
        <circle id="Oval" fill="#FFFFFF" transform="translate(999.380483, 266.853864) rotate(-345.000000) translate(-999.380483, -266.853864) " cx="999.380483" cy="266.853864" r="1"></circle>
        <circle id="Oval" fill="#FFFFFF" transform="translate(585.762134, 701.615709) rotate(-345.000000) translate(-585.762134, -701.615709) " cx="585.762134" cy="701.615709" r="1"></circle>
        <circle id="Oval" fill="#FFFFFF" transform="translate(668.843047, 391.553519) rotate(-345.000000) translate(-668.843047, -391.553519) " cx="668.843047" cy="391.553519" r="1"></circle>
        <circle id="Oval" fill="#FFFFFF" transform="translate(712.777914, 173.494518) rotate(-345.000000) translate(-712.777914, -173.494518) " cx="712.777914" cy="173.494518" r="1"></circle>
        <circle id="Oval" fill="#FFFFFF" transform="translate(318.564680, 810.158422) rotate(-345.000000) translate(-318.564680, -810.158422) " cx="318.56468" cy="810.158422" r="1"></circle>
        <circle id="Oval" fill="#FFFFFF" transform="translate(630.711026, 927.961897) rotate(-345.000000) translate(-630.711026, -927.961897) " cx="630.711026" cy="927.961897" r="1"></circle>
        <circle id="Oval" fill="#FFFFFF" transform="translate(651.617310, 521.523800) rotate(-345.000000) translate(-651.617310, -521.523800) " cx="651.61731" cy="521.5238" r="1"></circle>
        <circle id="Oval" fill="#FFFFFF" transform="translate(696.358151, 760.237555) rotate(-345.000000) translate(-696.358151, -760.237555) " cx="696.358151" cy="760.237555" r="1"></circle>
        <circle id="Oval" fill="#FFFFFF" transform="translate(779.439065, 450.175365) rotate(-345.000000) translate(-779.439065, -450.175365) " cx="779.439065" cy="450.175365" r="1"></circle>
        <circle id="Oval" fill="#FFFFFF" transform="translate(823.373931, 232.116365) rotate(-345.000000) translate(-823.373931, -232.116365) " cx="823.373931" cy="232.116365" r="1"></circle>
        <circle id="Oval" fill="#FFFFFF" transform="translate(409.755582, 666.878210) rotate(-345.000000) translate(-409.755582, -666.878210) " cx="409.755582" cy="666.87821" r="1"></circle>
        <circle id="Oval" fill="#FFFFFF" transform="translate(492.836496, 356.816019) rotate(-345.000000) translate(-492.836496, -356.816019) " cx="492.836496" cy="356.816019" r="1"></circle>
        <circle id="Oval" fill="#FFFFFF" transform="translate(536.771362, 138.757019) rotate(-345.000000) translate(-536.771362, -138.757019) " cx="536.771362" cy="138.757019" r="1"></circle>
        <circle id="Oval" fill="#FFFFFF" transform="translate(142.558128, 775.420923) rotate(-345.000000) translate(-142.558128, -775.420923) " cx="142.558128" cy="775.420923" r="1"></circle>
        <circle id="Oval" fill="#FFFFFF" transform="translate(597.703640, 842.507158) rotate(-345.000000) translate(-597.703640, -842.507158) " cx="597.70364" cy="842.507158" r="1"></circle>
        <circle id="Oval" fill="#FFFFFF" transform="translate(330.506186, 951.049871) rotate(-345.000000) translate(-330.506186, -951.049871) " cx="330.506186" cy="951.049871" r="1"></circle>
        <circle id="Oval" fill="#FFFFFF" transform="translate(618.609925, 436.069060) rotate(-345.000000) translate(-618.609925, -436.069060) " cx="618.609925" cy="436.06906" r="1"></circle>
        <circle id="Oval" fill="#FFFFFF" transform="translate(663.350766, 674.782816) rotate(-345.000000) translate(-663.350766, -674.782816) " cx="663.350766" cy="674.782816" r="1"></circle>
        <circle id="Oval" fill="#FFFFFF" transform="translate(746.431679, 364.720626) rotate(-345.000000) translate(-746.431679, -364.720626) " cx="746.431679" cy="364.720626" r="1"></circle>
        <circle id="Oval" fill="#FFFFFF" transform="translate(790.366546, 146.661626) rotate(-345.000000) translate(-790.366546, -146.661626) " cx="790.366546" cy="146.661626" r="1"></circle>
        <circle id="Oval" fill="#FFFFFF" transform="translate(396.153312, 783.325529) rotate(-345.000000) translate(-396.153312, -783.325529) " cx="396.153312" cy="783.325529" r="1"></circle>
        <circle id="Oval" fill="#FFFFFF" transform="translate(376.748197, 581.423470) rotate(-345.000000) translate(-376.748197, -581.423470) " cx="376.748197" cy="581.42347" r="1"></circle>
        <circle id="Oval" fill="#FFFFFF" transform="translate(459.829110, 271.361280) rotate(-345.000000) translate(-459.829110, -271.361280) " cx="459.82911" cy="271.36128" r="1"></circle>
        <circle id="Oval" fill="#FFFFFF" transform="translate(503.763977, 53.302280) rotate(-345.000000) translate(-503.763977, -53.302280) " cx="503.763977" cy="53.3022798" r="1"></circle>
        <circle id="Oval" fill="#FFFFFF" transform="translate(109.550743, 689.966183) rotate(-345.000000) translate(-109.550743, -689.966183) " cx="109.550743" cy="689.966183" r="1"></circle>
        <circle id="Oval" fill="#FFFFFF" transform="translate(473.569724, 954.184240) rotate(-345.000000) translate(-473.569724, -954.184240) " cx="473.569724" cy="954.18424" r="1"></circle>
        <circle id="Oval" fill="#FFFFFF" transform="translate(494.476009, 547.746143) rotate(-345.000000) translate(-494.476009, -547.746143) " cx="494.476009" cy="547.746143" r="1"></circle>
        <circle id="Oval" fill="#FFFFFF" transform="translate(686.277812, 840.358631) rotate(-345.000000) translate(-686.277812, -840.358631) " cx="686.277812" cy="840.358631" r="1"></circle>
        <circle id="Oval" fill="#FFFFFF" transform="translate(622.297763, 476.397708) rotate(-345.000000) translate(-622.297763, -476.397708) " cx="622.297763" cy="476.397708" r="1"></circle>
        <circle id="Oval" fill="#FFFFFF" transform="translate(465.181357, 212.749391) rotate(-345.000000) translate(-465.181357, -212.749391) " cx="465.181357" cy="212.749391" r="1"></circle>
        <circle id="Oval" fill="#FFFFFF" transform="translate(272.019396, 895.002612) rotate(-345.000000) translate(-272.019396, -895.002612) " cx="272.019396" cy="895.002612" r="1"></circle>
        <circle id="Oval" fill="#FFFFFF" transform="translate(252.614280, 693.100553) rotate(-345.000000) translate(-252.614280, -693.100553) " cx="252.61428" cy="693.100553" r="1"></circle>
        <circle id="Oval" fill="#FFFFFF" transform="translate(335.695194, 383.038362) rotate(-345.000000) translate(-335.695194, -383.038362) " cx="335.695194" cy="383.038362" r="1"></circle>
        <circle id="Oval" fill="#FFFFFF" transform="translate(379.630060, 164.979362) rotate(-345.000000) translate(-379.630060, -164.979362) " cx="379.63006" cy="164.979362" r="1"></circle>
        <circle id="Oval" fill="#FFFFFF" transform="translate(440.562339, 868.729501) rotate(-345.000000) translate(-440.562339, -868.729501) " cx="440.562339" cy="868.729501" r="1"></circle>
        <circle id="Oval" fill="#FFFFFF" transform="translate(461.468623, 462.291403) rotate(-345.000000) translate(-461.468623, -462.291403) " cx="461.468623" cy="462.291403" r="1"></circle>
        <circle id="Oval" fill="#FFFFFF" transform="translate(219.606895, 607.645813) rotate(-345.000000) translate(-219.606895, -607.645813) " cx="219.606895" cy="607.645813" r="1"></circle>
        <circle id="Oval" fill="#FFFFFF" transform="translate(302.687809, 297.583623) rotate(-345.000000) translate(-302.687809, -297.583623) " cx="302.687809" cy="297.583623" r="1"></circle>
        <circle id="Oval" fill="#FFFFFF" transform="translate(346.622675, 79.524623) rotate(-345.000000) translate(-346.622675, -79.524623) " cx="346.622675" cy="79.5246228" r="1"></circle>
        <circle id="Oval" fill="#FFFFFF" transform="translate(527.551410, 845.450724) rotate(-345.000000) translate(-527.551410, -845.450724) " cx="527.55141" cy="845.450724" r="1"></circle>
        <circle id="Oval" fill="#FFFFFF" transform="translate(260.353956, 953.993438) rotate(-345.000000) translate(-260.353956, -953.993438) " cx="260.353956" cy="953.993438" r="1"></circle>
        <circle id="Oval" fill="#FFFFFF" transform="translate(548.457695, 439.012626) rotate(-345.000000) translate(-548.457695, -439.012626) " cx="548.457695" cy="439.012626" r="1"></circle>
        <circle id="Oval" fill="#FFFFFF" transform="translate(593.198536, 677.726382) rotate(-345.000000) translate(-593.198536, -677.726382) " cx="593.198536" cy="677.726382" r="1"></circle>
        <circle id="Oval" fill="#FFFFFF" transform="translate(676.279449, 367.664192) rotate(-345.000000) translate(-676.279449, -367.664192) " cx="676.279449" cy="367.664192" r="1"></circle>
        <circle id="Oval" fill="#FFFFFF" transform="translate(720.214316, 149.605192) rotate(-345.000000) translate(-720.214316, -149.605192) " cx="720.214316" cy="149.605192" r="1"></circle>
        <circle id="Oval" fill="#FFFFFF" transform="translate(326.001082, 786.269096) rotate(-345.000000) translate(-326.001082, -786.269096) " cx="326.001082" cy="786.269096" r="1"></circle>
        <circle id="Oval" fill="#FFFFFF" transform="translate(306.595967, 584.367036) rotate(-345.000000) translate(-306.595967, -584.367036) " cx="306.595967" cy="584.367036" r="1"></circle>
        <circle id="Oval" fill="#FFFFFF" transform="translate(389.676880, 274.304846) rotate(-345.000000) translate(-389.676880, -274.304846) " cx="389.67688" cy="274.304846" r="1"></circle>
        <circle id="Oval" fill="#FFFFFF" transform="translate(433.611747, 56.245846) rotate(-345.000000) translate(-433.611747, -56.245846) " cx="433.611747" cy="56.2458461" r="1"></circle>
        <circle id="Oval" fill="#FFFFFF" transform="translate(39.398513, 692.909750) rotate(-345.000000) translate(-39.398513, -692.909750) " cx="39.3985128" cy="692.90975" r="1"></circle>
        <circle id="Oval" fill="#FFFFFF" transform="translate(494.544025, 759.995985) rotate(-345.000000) translate(-494.544025, -759.995985) " cx="494.544025" cy="759.995985" r="1"></circle>
        <circle id="Oval" fill="#FFFFFF" transform="translate(577.624938, 449.933794) rotate(-345.000000) translate(-577.624938, -449.933794) " cx="577.624938" cy="449.933794" r="1"></circle>
        <circle id="Oval" fill="#FFFFFF" transform="translate(621.559805, 231.874794) rotate(-345.000000) translate(-621.559805, -231.874794) " cx="621.559805" cy="231.874794" r="1"></circle>
        <circle id="Oval" fill="#FFFFFF" transform="translate(227.346571, 868.538698) rotate(-345.000000) translate(-227.346571, -868.538698) " cx="227.346571" cy="868.538698" r="1"></circle>
        <circle id="Oval" fill="#FFFFFF" transform="translate(515.450310, 353.557887) rotate(-345.000000) translate(-515.450310, -353.557887) " cx="515.45031" cy="353.557887" r="1"></circle>
        <circle id="Oval" fill="#FFFFFF" transform="translate(560.191150, 592.271643) rotate(-345.000000) translate(-560.191150, -592.271643) " cx="560.19115" cy="592.271643" r="1"></circle>
        <circle id="Oval" fill="#FFFFFF" transform="translate(643.272064, 282.209452) rotate(-345.000000) translate(-643.272064, -282.209452) " cx="643.272064" cy="282.209452" r="1"></circle>
        <circle id="Oval" fill="#FFFFFF" transform="translate(687.206930, 64.150452) rotate(-345.000000) translate(-687.206930, -64.150452) " cx="687.20693" cy="64.1504523" r="1"></circle>
        <circle id="Oval" fill="#FFFFFF" transform="translate(292.993697, 700.814356) rotate(-345.000000) translate(-292.993697, -700.814356) " cx="292.993697" cy="700.814356" r="1"></circle>
        <circle id="Oval" fill="#FFFFFF" transform="translate(376.074610, 390.752166) rotate(-345.000000) translate(-376.074610, -390.752166) " cx="376.07461" cy="390.752166" r="1"></circle>
        <circle id="Oval" fill="#FFFFFF" transform="translate(420.009476, 172.693166) rotate(-345.000000) translate(-420.009476, -172.693166) " cx="420.009476" cy="172.693166" r="1"></circle>
        <circle id="Oval" fill="#FFFFFF" transform="translate(273.588581, 498.912297) rotate(-345.000000) translate(-273.588581, -498.912297) " cx="273.588581" cy="498.912297" r="1"></circle>
        <circle id="Oval" fill="#FFFFFF" transform="translate(6.391128, 607.455010) rotate(-345.000000) translate(-6.391128, -607.455010) " cx="6.39112751" cy="607.45501" r="1"></circle>
        <circle id="Oval" fill="#FFFFFF" transform="translate(259.892065, 909.352799) rotate(-345.000000) translate(-259.892065, -909.352799) " cx="259.892065" cy="909.352799" r="1"></circle>
        <circle id="Oval" fill="#FFFFFF" transform="translate(280.798350, 502.914701) rotate(-345.000000) translate(-280.798350, -502.914701) " cx="280.79835" cy="502.914701" r="1"></circle>
        <circle id="Oval" fill="#FFFFFF" transform="translate(13.600896, 611.457414) rotate(-345.000000) translate(-13.600896, -611.457414) " cx="13.600896" cy="611.457414" r="1"></circle>
        <circle id="Oval" fill="#FFFFFF" transform="translate(325.539191, 741.628457) rotate(-345.000000) translate(-325.539191, -741.628457) " cx="325.539191" cy="741.628457" r="1"></circle>
        <circle id="Oval" fill="#FFFFFF" transform="translate(58.341737, 850.171170) rotate(-345.000000) translate(-58.341737, -850.171170) " cx="58.3417369" cy="850.17117" r="1"></circle>
        <circle id="Oval" fill="#FFFFFF" transform="translate(38.936622, 648.269111) rotate(-345.000000) translate(-38.936622, -648.269111) " cx="38.9366218" cy="648.269111" r="1"></circle>
        <circle id="Oval" fill="#FFFFFF" transform="translate(122.017535, 338.206920) rotate(-345.000000) translate(-122.017535, -338.206920) " cx="122.017535" cy="338.20692" r="1"></circle>
        <circle id="Oval" fill="#FFFFFF" transform="translate(165.952402, 120.147920) rotate(-345.000000) translate(-165.952402, -120.147920) " cx="165.952402" cy="120.14792" r="1"></circle>
        <circle id="Oval" fill="#FFFFFF" transform="translate(226.884680, 823.898059) rotate(-345.000000) translate(-226.884680, -823.898059) " cx="226.88468" cy="823.898059" r="1"></circle>
        <circle id="Oval" fill="#FFFFFF" transform="translate(247.790965, 417.459961) rotate(-345.000000) translate(-247.790965, -417.459961) " cx="247.790965" cy="417.459961" r="1"></circle>
        <circle id="Oval" fill="#FFFFFF" transform="translate(292.531806, 656.173717) rotate(-345.000000) translate(-292.531806, -656.173717) " cx="292.531806" cy="656.173717" r="1"></circle>
        <circle id="Oval" fill="#FFFFFF" transform="translate(375.612719, 346.111527) rotate(-345.000000) translate(-375.612719, -346.111527) " cx="375.612719" cy="346.111527" r="1"></circle>
        <circle id="Oval" fill="#FFFFFF" transform="translate(419.547585, 128.052527) rotate(-345.000000) translate(-419.547585, -128.052527) " cx="419.547585" cy="128.052527" r="1"></circle>
        <circle id="Oval" fill="#FFFFFF" transform="translate(25.334352, 764.716430) rotate(-345.000000) translate(-25.334352, -764.716430) " cx="25.3343516" cy="764.71643" r="1"></circle>
        <circle id="Oval" fill="#FFFFFF" transform="translate(5.929237, 562.814371) rotate(-345.000000) translate(-5.929237, -562.814371) " cx="5.92923654" cy="562.814371" r="1"></circle>
        <circle id="Oval" fill="#FFFFFF" transform="translate(775.144322, 647.797619) rotate(-345.000000) translate(-775.144322, -647.797619) " cx="775.144322" cy="647.797619" r="1"></circle>
        <circle id="Oval" fill="#FFFFFF" transform="translate(858.225235, 337.735429) rotate(-345.000000) translate(-858.225235, -337.735429) " cx="858.225235" cy="337.735429" r="1"></circle>
        <circle id="Oval" fill="#FFFFFF" transform="translate(902.160102, 119.676429) rotate(-345.000000) translate(-902.160102, -119.676429) " cx="902.160102" cy="119.676429" r="1"></circle>
        <circle id="Oval" fill="#FFFFFF" transform="translate(819.885163, 886.511375) rotate(-345.000000) translate(-819.885163, -886.511375) " cx="819.885163" cy="886.511375" r="1"></circle>
        <circle id="Oval" fill="#FFFFFF" transform="translate(533.282594, 793.152029) rotate(-345.000000) translate(-533.282594, -793.152029) " cx="533.282594" cy="793.152029" r="1"></circle>
        <circle id="Oval" fill="#FFFFFF" transform="translate(616.363507, 483.089839) rotate(-345.000000) translate(-616.363507, -483.089839) " cx="616.363507" cy="483.089839" r="1"></circle>
        <circle id="Oval" fill="#FFFFFF" transform="translate(660.298374, 265.030839) rotate(-345.000000) translate(-660.298374, -265.030839) " cx="660.298374" cy="265.030839" r="1"></circle>
        <circle id="Oval" fill="#FFFFFF" transform="translate(266.085140, 901.694742) rotate(-345.000000) translate(-266.085140, -901.694742) " cx="266.08514" cy="901.694742" r="1"></circle>
        <circle id="Oval" fill="#FFFFFF" transform="translate(721.230652, 968.780977) rotate(-345.000000) translate(-721.230652, -968.780977) " cx="721.230652" cy="968.780977" r="1"></circle>
        <circle id="Oval" fill="#FFFFFF" transform="translate(742.136937, 562.342879) rotate(-345.000000) translate(-742.136937, -562.342879) " cx="742.136937" cy="562.342879" r="1"></circle>
        <circle id="Oval" fill="#FFFFFF" transform="translate(786.877778, 801.056635) rotate(-345.000000) translate(-786.877778, -801.056635) " cx="786.877778" cy="801.056635" r="1"></circle>
        <circle id="Oval" fill="#FFFFFF" transform="translate(869.958691, 490.994445) rotate(-345.000000) translate(-869.958691, -490.994445) " cx="869.958691" cy="490.994445" r="1"></circle>
        <circle id="Oval" fill="#FFFFFF" transform="translate(913.893557, 272.935445) rotate(-345.000000) translate(-913.893557, -272.935445) " cx="913.893557" cy="272.935445" r="1"></circle>
        <circle id="Oval" fill="#FFFFFF" transform="translate(500.275209, 707.697289) rotate(-345.000000) translate(-500.275209, -707.697289) " cx="500.275209" cy="707.697289" r="1"></circle>
        <circle id="Oval" fill="#FFFFFF" transform="translate(583.356122, 397.635099) rotate(-345.000000) translate(-583.356122, -397.635099) " cx="583.356122" cy="397.635099" r="1"></circle>
        <circle id="Oval" fill="#FFFFFF" transform="translate(627.290988, 179.576099) rotate(-345.000000) translate(-627.290988, -179.576099) " cx="627.290988" cy="179.576099" r="1"></circle>
        <circle id="Oval" fill="#FFFFFF" transform="translate(70.113691, 756.009495) rotate(-345.000000) translate(-70.113691, -756.009495) " cx="70.1136914" cy="756.009495" r="1"></circle>
        <circle id="Oval" fill="#FFFFFF" transform="translate(89.472041, 297.392820) rotate(-345.000000) translate(-89.472041, -297.392820) " cx="89.472041" cy="297.39282" r="1"></circle>
        <circle id="Oval" fill="#FFFFFF" transform="translate(133.406907, 79.333820) rotate(-345.000000) translate(-133.406907, -79.333820) " cx="133.406907" cy="79.3338199" r="1"></circle>
        <circle id="Oval" fill="#FFFFFF" transform="translate(96.681810, 301.395224) rotate(-345.000000) translate(-96.681810, -301.395224) " cx="96.6818095" cy="301.395224" r="1"></circle>
        <circle id="Oval" fill="#FFFFFF" transform="translate(140.616676, 83.336224) rotate(-345.000000) translate(-140.616676, -83.336224) " cx="140.616676" cy="83.3362239" r="1"></circle>
        <circle id="Oval" fill="#FFFFFF" transform="translate(89.010150, 252.752181) rotate(-345.000000) translate(-89.010150, -252.752181) " cx="89.01015" cy="252.752181" r="1"></circle>
        <circle id="Oval" fill="#FFFFFF" transform="translate(132.945016, 34.693181) rotate(-345.000000) translate(-132.945016, -34.693181) " cx="132.945016" cy="34.6931808" r="1"></circle>
        <circle id="Oval" fill="#FFFFFF" cx="40" cy="90" r="2"></circle>
        <circle id="Oval" fill="#FFFFFF" cx="125" cy="488" r="2"></circle>
        <circle id="Oval" fill="#FFFFFF" cx="20" cy="269" r="2"></circle>
        <circle id="Oval" fill="#FFFFFF" cx="20" cy="590" r="2"></circle>
        <circle id="Oval" fill="#FFFFFF" cx="34" cy="812" r="2"></circle>
        <circle id="Oval" fill="#FFFFFF" cx="321" cy="285" r="2"></circle>
        <circle id="Oval" fill="#FFFFFF" cx="321" cy="606" r="2"></circle>
        <circle id="Oval" fill="#FFFFFF" cx="335" cy="828" r="2"></circle>
        <circle id="Oval" fill="#FFFFFF" cx="551" cy="111" r="2"></circle>
        <circle id="Oval" fill="#FFFFFF" cx="94" cy="164" r="2"></circle>
        <circle id="Oval" fill="#FFFFFF" cx="179" cy="562" r="2"></circle>
        <circle id="Oval" fill="#FFFFFF" cx="74" cy="343" r="2"></circle>
        <circle id="Oval" fill="#FFFFFF" cx="74" cy="664" r="2"></circle>
        <circle id="Oval" fill="#FFFFFF" cx="88" cy="886" r="2"></circle>
        <circle id="Oval" fill="#FFFFFF" cx="375" cy="359" r="2"></circle>
        <circle id="Oval" fill="#FFFFFF" cx="375" cy="680" r="2"></circle>
        <circle id="Oval" fill="#FFFFFF" cx="389" cy="902" r="2"></circle>
        <circle id="Oval" fill="#FFFFFF" cx="605" cy="185" r="2"></circle>
        <circle id="Oval" fill="#FFFFFF" cx="273" cy="152" r="2"></circle>
        <circle id="Oval" fill="#FFFFFF" cx="358" cy="550" r="2"></circle>
        <circle id="Oval" fill="#FFFFFF" cx="253" cy="331" r="2"></circle>
        <circle id="Oval" fill="#FFFFFF" cx="253" cy="652" r="2"></circle>
        <circle id="Oval" fill="#FFFFFF" cx="267" cy="874" r="2"></circle>
        <circle id="Oval" fill="#FFFFFF" cx="554" cy="347" r="2"></circle>
        <circle id="Oval" fill="#FFFFFF" cx="554" cy="668" r="2"></circle>
        <circle id="Oval" fill="#FFFFFF" cx="568" cy="890" r="2"></circle>
        <circle id="Oval" fill="#FFFFFF" cx="784" cy="173" r="2"></circle>
        <circle id="Oval" fill="#FFFFFF" cx="327" cy="226" r="2"></circle>
        <circle id="Oval" fill="#FFFFFF" cx="557" cy="52" r="2"></circle>
        <circle id="Oval" fill="#FFFFFF" cx="412" cy="624" r="2"></circle>
        <circle id="Oval" fill="#FFFFFF" cx="307" cy="405" r="2"></circle>
        <circle id="Oval" fill="#FFFFFF" cx="307" cy="726" r="2"></circle>
        <circle id="Oval" fill="#FFFFFF" cx="321" cy="948" r="2"></circle>
        <circle id="Oval" fill="#FFFFFF" cx="537" cy="231" r="2"></circle>
        <circle id="Oval" fill="#FFFFFF" cx="608" cy="421" r="2"></circle>
        <circle id="Oval" fill="#FFFFFF" cx="608" cy="742" r="2"></circle>
        <circle id="Oval" fill="#FFFFFF" cx="622" cy="964" r="2"></circle>
        <circle id="Oval" fill="#FFFFFF" cx="838" cy="247" r="2"></circle>
        <circle id="Oval" fill="#FFFFFF" cx="418" cy="86" r="2"></circle>
        <circle id="Oval" fill="#FFFFFF" cx="503" cy="484" r="2"></circle>
        <circle id="Oval" fill="#FFFFFF" cx="242" cy="251" r="2"></circle>
        <circle id="Oval" fill="#FFFFFF" cx="398" cy="586" r="2"></circle>
        <circle id="Oval" fill="#FFFFFF" cx="618" cy="800" r="2"></circle>
        <circle id="Oval" fill="#FFFFFF" cx="620" cy="83" r="2"></circle>
        <circle id="Oval" fill="#FFFFFF" cx="699" cy="281" r="2"></circle>
        <circle id="Oval" fill="#FFFFFF" cx="699" cy="602" r="2"></circle>
        <circle id="Oval" fill="#FFFFFF" cx="713" cy="824" r="2"></circle>
        <circle id="Oval" fill="#FFFFFF" cx="929" cy="107" r="2"></circle>
        <circle id="Oval" fill="#FFFFFF" cx="472" cy="160" r="2"></circle>
        <circle id="Oval" fill="#FFFFFF" cx="557" cy="558" r="2"></circle>
        <circle id="Oval" fill="#FFFFFF" cx="935" cy="49" r="2"></circle>
        <circle id="Oval" fill="#FFFFFF" cx="753" cy="355" r="2"></circle>
        <circle id="Oval" fill="#FFFFFF" cx="753" cy="676" r="2"></circle>
        <circle id="Oval" fill="#FFFFFF" cx="767" cy="898" r="2"></circle>
        <circle id="Oval" fill="#FFFFFF" cx="983" cy="181" r="2"></circle>
        <circle id="Oval" fill="#FFFFFF" cx="394" cy="205" r="2"></circle>
        <circle id="Oval" fill="#FFFFFF" cx="624" cy="31" r="2"></circle>
        <circle id="Oval" fill="#FFFFFF" cx="479" cy="603" r="2"></circle>
        <circle id="Oval" fill="#FFFFFF" cx="374" cy="384" r="2"></circle>
        <circle id="Oval" fill="#FFFFFF" cx="374" cy="705" r="2"></circle>
        <circle id="Oval" fill="#FFFFFF" cx="388" cy="927" r="2"></circle>
        <circle id="Oval" fill="#FFFFFF" cx="604" cy="210" r="2"></circle>
        <circle id="Oval" fill="#FFFFFF" cx="675" cy="400" r="2"></circle>
        <circle id="Oval" fill="#FFFFFF" cx="675" cy="721" r="2"></circle>
        <circle id="Oval" fill="#FFFFFF" cx="689" cy="943" r="2"></circle>
        <circle id="Oval" fill="#FFFFFF" cx="905" cy="226" r="2"></circle>
        <circle id="Oval" fill="#FFFFFF" cx="448" cy="279" r="2"></circle>
        <circle id="Oval" fill="#FFFFFF" cx="448" cy="600" r="2"></circle>
        <circle id="Oval" fill="#FFFFFF" cx="462" cy="822" r="2"></circle>
        <circle id="Oval" fill="#FFFFFF" cx="678" cy="105" r="2"></circle>
        <circle id="Oval" fill="#FFFFFF" cx="533" cy="677" r="2"></circle>
        <circle id="Oval" fill="#FFFFFF" cx="428" cy="458" r="2"></circle>
        <circle id="Oval" fill="#FFFFFF" cx="428" cy="779" r="2"></circle>
        <circle id="Oval" fill="#FFFFFF" cx="442" cy="1001" r="2"></circle>
        <circle id="Oval" fill="#FFFFFF" cx="658" cy="284" r="2"></circle>
        <circle id="Oval" fill="#FFFFFF" cx="658" cy="605" r="2"></circle>
        <circle id="Oval" fill="#FFFFFF" cx="672" cy="827" r="2"></circle>
        <circle id="Oval" fill="#FFFFFF" cx="729" cy="474" r="2"></circle>
        <circle id="Oval" fill="#FFFFFF" cx="959" cy="300" r="2"></circle>
        <circle id="Oval" fill="#FFFFFF" cx="636" cy="74" r="2"></circle>
        <circle id="Oval" fill="#FFFFFF" cx="721" cy="472" r="2"></circle>
        <circle id="Oval" fill="#FFFFFF" cx="951" cy="298" r="2"></circle>
        <circle id="Oval" fill="#FFFFFF" cx="616" cy="253" r="2"></circle>
        <circle id="Oval" fill="#FFFFFF" cx="846" cy="79" r="2"></circle>
        <circle id="Oval" fill="#FFFFFF" cx="917" cy="269" r="2"></circle>
        <circle id="Oval" fill="#FFFFFF" cx="917" cy="590" r="2"></circle>
        <circle id="Oval" fill="#FFFFFF" cx="931" cy="812" r="2"></circle>
        <circle id="Oval" fill="#FFFFFF" cx="690" cy="148" r="2"></circle>
        <circle id="Oval" fill="#FFFFFF" cx="775" cy="546" r="2"></circle>
        <circle id="Oval" fill="#FFFFFF" cx="670" cy="327" r="2"></circle>
        <circle id="Oval" fill="#FFFFFF" cx="670" cy="648" r="2"></circle>
        <circle id="Oval" fill="#FFFFFF" cx="684" cy="870" r="2"></circle>
        <circle id="Oval" fill="#FFFFFF" cx="900" cy="153" r="2"></circle>
        <circle id="Oval" fill="#FFFFFF" cx="971" cy="343" r="2"></circle>
        <circle id="Oval" fill="#FFFFFF" cx="121" cy="62" r="2"></circle>
        <circle id="Oval" fill="#FFFFFF" cx="206" cy="460" r="2"></circle>
        <circle id="Oval" fill="#FFFFFF" cx="206" cy="781" r="2"></circle>
        <circle id="Oval" fill="#FFFFFF" cx="220" cy="1003" r="2"></circle>
        <circle id="Oval" fill="#FFFFFF" cx="101" cy="241" r="2"></circle>
        <circle id="Oval" fill="#FFFFFF" cx="402" cy="257" r="2"></circle>
        <circle id="Oval" fill="#FFFFFF" cx="402" cy="578" r="2"></circle>
        <circle id="Oval" fill="#FFFFFF" cx="416" cy="800" r="2"></circle>
        <circle id="Oval" fill="#FFFFFF" cx="792" cy="61" r="2"></circle>
        <circle id="Oval" fill="#FFFFFF" cx="175" cy="136" r="2"></circle>
        <circle id="Oval" fill="#FFFFFF" cx="260" cy="534" r="2"></circle>
        <circle id="Oval" fill="#FFFFFF" cx="155" cy="315" r="2"></circle>
        <circle id="Oval" fill="#FFFFFF" cx="155" cy="636" r="2"></circle>
        <circle id="Oval" fill="#FFFFFF" cx="169" cy="858" r="2"></circle>
        <circle id="Oval" fill="#FFFFFF" cx="456" cy="331" r="2"></circle>
        <circle id="Oval" fill="#FFFFFF" cx="456" cy="652" r="2"></circle>
        <circle id="Oval" fill="#FFFFFF" cx="470" cy="874" r="2"></circle>
        <circle id="Oval" fill="#FFFFFF" cx="859" cy="173" r="2"></circle>
        <circle id="Oval" fill="#FFFFFF" cx="959" cy="621" r="2"></circle>
        <circle id="Oval" fill="#FFFFFF" cx="973" cy="843" r="2"></circle>
        <circle id="Oval" fill="#FFFFFF" cx="951" cy="619" r="2"></circle>
        <circle id="Oval" fill="#FFFFFF" cx="965" cy="841" r="2"></circle>
        <circle id="Oval" fill="#FFFFFF" cx="971" cy="664" r="2"></circle>
        <circle id="Oval" fill="#FFFFFF" cx="985" cy="886" r="2"></circle>
    </g>
</svg>