<?xml version="1.0" encoding="UTF-8"?>
<svg width="100px" height="100px" viewBox="0 0 100 100" version="1.1" xmlns="http://www.w3.org/2000/svg" xmlns:xlink="http://www.w3.org/1999/xlink">
    <title>favicon</title>
    <g id="favicon" stroke="none" stroke-width="1" fill="none" fill-rule="evenodd">
        <rect fill="#FFFFFF" x="0" y="0" width="100" height="100"></rect>
        <path d="M50.5,13 C67.7025355,13 82.1996641,24.5832236 86.6173657,40.3756507 L64.75,40.375 L64.75,42.625 L87.1719133,42.6258309 C87.7144575,45.1648347 88,47.7990714 88,50.5 C88,71.2106781 71.2106781,88 50.5,88 C47.7987155,88 45.1641406,87.7143823 42.6248274,87.1716989 L42.624,60.624 L64.75,60.625 L64.75,58.375 L42.624,58.374 L42.6248274,13.8283011 C45.1641406,13.2856177 47.7987155,13 50.5,13 Z M40.3746535,14.3829133 L40.3746535,86.6170867 C24.582736,82.1990538 13,67.7021734 13,50.5 C13,33.2978266 24.582736,18.8009462 40.3746535,14.3829133 Z" id="Combined-Shape" fill="#000000"></path>
    </g>
</svg>