<?xml version="1.0" standalone="no"?>
<!DOCTYPE svg PUBLIC "-//W3C//DTD SVG 20010904//EN"
 "http://www.w3.org/TR/2001/REC-SVG-20010904/DTD/svg10.dtd">
<svg version="1.0" xmlns="http://www.w3.org/2000/svg"
 width="700.000000pt" height="700.000000pt" viewBox="0 0 700.000000 700.000000"
 preserveAspectRatio="xMidYMid meet">
<metadata>
Created by potrace 1.14, written by Peter Selinger 2001-2017
</metadata>
<g transform="translate(0.000000,700.000000) scale(0.100000,-0.100000)"
fill="#000000" stroke="none">
<path d="M3437 5684 c-1 -1 -38 -5 -82 -8 -113 -9 -151 -14 -209 -25 -28 -6
-64 -12 -81 -15 -33 -4 -193 -48 -264 -72 -140 -47 -342 -145 -476 -231 -69
-45 -225 -162 -256 -192 -9 -9 -38 -37 -65 -62 -233 -221 -408 -479 -528 -776
-43 -108 -99 -291 -111 -363 -4 -19 -10 -54 -16 -77 -5 -24 -11 -71 -14 -105
-3 -35 -8 -76 -10 -93 -6 -41 -6 -289 0 -345 20 -189 23 -212 56 -347 44 -181
119 -378 196 -516 18 -33 33 -63 33 -68 0 -5 5 -9 10 -9 6 0 10 -5 10 -11 0
-23 153 -236 235 -328 64 -71 172 -175 263 -253 52 -45 212 -153 302 -205 132
-74 209 -110 345 -158 97 -35 254 -78 325 -89 19 -3 44 -7 55 -10 130 -26 414
-37 545 -21 25 3 68 8 95 11 251 28 535 124 805 270 60 33 246 159 270 184 3
3 28 23 55 45 68 54 215 204 284 290 137 170 256 368 334 560 47 115 110 332
122 417 2 15 6 35 9 45 2 10 8 47 11 83 4 36 8 78 10 93 4 28 7 137 6 170 -1
16 -21 17 -274 17 l-273 0 2 73 c6 262 30 502 79 777 41 231 167 681 230 825
7 17 37 86 65 154 28 68 78 177 111 242 32 66 56 119 52 120 -30 3 -205 -8
-268 -17 -22 -3 -49 -7 -60 -9 -11 -1 -33 -5 -50 -8 -16 -4 -41 -9 -55 -11
-265 -46 -632 -210 -859 -383 -541 -412 -853 -994 -888 -1655 l-5 -108 275 0
276 0 -4 -137 c-6 -170 -15 -279 -37 -448 -5 -44 -11 -89 -13 -100 -17 -136
-88 -468 -130 -605 -55 -179 -112 -345 -160 -465 -63 -156 -192 -425 -204
-425 -10 0 -113 207 -174 350 -76 176 -191 519 -223 660 -2 11 -6 28 -9 37
-12 47 -47 204 -56 253 -31 172 -45 264 -55 360 -3 30 -7 69 -9 85 -23 194
-24 626 -1 861 12 120 18 170 21 184 2 8 7 35 10 60 57 433 224 977 424 1379
l69 139 -34 4 c-19 2 -36 3 -37 2z"/>
</g>
</svg>
